<svg width="1092" height="409" viewBox="0 0 1092 409" fill="none" xmlns="http://www.w3.org/2000/svg">
<path d="M56.481 53.82C55.515 26.08 77.128 0.5 106.342 0.5H985.695C1014.91 0.5 1036.52 26.08 1035.56 53.82C1034.63 80.467 1035.83 114.985 1044.52 143.13C1053.23 171.362 1067.93 189.207 1092 191.5V217.5C1067.93 219.793 1053.23 237.638 1044.52 265.87C1035.83 294.015 1034.63 328.533 1035.56 355.181C1036.52 382.92 1014.91 408.5 985.695 408.5H106.342C77.128 408.5 55.515 382.92 56.482 355.181C57.409 328.533 56.204 294.015 47.516 265.87C38.802 237.638 24.07 219.793 0 217.5V191.5C24.069 189.207 38.802 171.362 47.516 143.13C56.204 114.985 57.409 80.467 56.481 53.82Z" fill="url(#paint0_linear_1_6)"/>
<g filter="url(#filter0_d_1_6)">
<path d="M119.102 156.901V131.545H238.562V156.901H194.031V277H163.634V156.901H119.102ZM291.137 279.131C280.105 279.131 270.564 276.787 262.515 272.099C254.513 267.365 248.334 260.783 243.978 252.355C239.622 243.88 237.444 234.055 237.444 222.881C237.444 211.612 239.622 201.763 243.978 193.335C248.334 184.86 254.513 178.278 262.515 173.591C270.564 168.856 280.105 166.489 291.137 166.489C302.169 166.489 311.686 168.856 319.688 173.591C327.737 178.278 333.94 184.86 338.296 193.335C342.652 201.763 344.83 211.612 344.83 222.881C344.83 234.055 342.652 243.88 338.296 252.355C333.94 260.783 327.737 267.365 319.688 272.099C311.686 276.787 302.169 279.131 291.137 279.131ZM291.279 255.693C296.298 255.693 300.488 254.273 303.85 251.432C307.212 248.544 309.745 244.614 311.45 239.642C313.201 234.67 314.077 229.012 314.077 222.668C314.077 216.323 313.201 210.665 311.45 205.693C309.745 200.722 307.212 196.792 303.85 193.903C300.488 191.015 296.298 189.571 291.279 189.571C286.213 189.571 281.951 191.015 278.495 193.903C275.086 196.792 272.505 200.722 270.754 205.693C269.049 210.665 268.197 216.323 268.197 222.668C268.197 229.012 269.049 234.67 270.754 239.642C272.505 244.614 275.086 248.544 278.495 251.432C281.951 254.273 286.213 255.693 291.279 255.693ZM416.634 277H365.072V131.545H417.06C431.691 131.545 444.286 134.457 454.844 140.281C465.403 146.058 473.523 154.367 479.205 165.21C484.934 176.053 487.799 189.027 487.799 204.131C487.799 219.282 484.934 232.303 479.205 243.193C473.523 254.083 465.356 262.44 454.702 268.264C444.096 274.088 431.407 277 416.634 277ZM395.825 250.651H415.356C424.447 250.651 432.094 249.041 438.296 245.821C444.546 242.554 449.234 237.511 452.359 230.693C455.531 223.828 457.117 214.973 457.117 204.131C457.117 193.383 455.531 184.599 452.359 177.781C449.234 170.963 444.57 165.944 438.367 162.724C432.165 159.505 424.518 157.895 415.427 157.895H395.825V250.651ZM559.301 279.131C548.269 279.131 538.728 276.787 530.679 272.099C522.677 267.365 516.498 260.783 512.142 252.355C507.786 243.88 505.608 234.055 505.608 222.881C505.608 211.612 507.786 201.763 512.142 193.335C516.498 184.86 522.677 178.278 530.679 173.591C538.728 168.856 548.269 166.489 559.301 166.489C570.333 166.489 579.85 168.856 587.852 173.591C595.902 178.278 602.104 184.86 606.46 193.335C610.816 201.763 612.994 211.612 612.994 222.881C612.994 234.055 610.816 243.88 606.46 252.355C602.104 260.783 595.902 267.365 587.852 272.099C579.85 276.787 570.333 279.131 559.301 279.131ZM559.443 255.693C564.462 255.693 568.652 254.273 572.014 251.432C575.376 248.544 577.909 244.614 579.614 239.642C581.366 234.67 582.241 229.012 582.241 222.668C582.241 216.323 581.366 210.665 579.614 205.693C577.909 200.722 575.376 196.792 572.014 193.903C568.652 191.015 564.462 189.571 559.443 189.571C554.377 189.571 550.116 191.015 546.659 193.903C543.25 196.792 540.67 200.722 538.918 205.693C537.213 210.665 536.361 216.323 536.361 222.668C536.361 229.012 537.213 234.67 538.918 239.642C540.67 244.614 543.25 248.544 546.659 251.432C550.116 254.273 554.377 255.693 559.443 255.693ZM633.236 277V131.545H663.989V251.645H726.347V277H633.236ZM746.144 277V167.909H776.4V277H746.144ZM761.343 153.847C756.845 153.847 752.986 152.355 749.766 149.372C746.594 146.342 745.008 142.72 745.008 138.506C745.008 134.339 746.594 130.764 749.766 127.781C752.986 124.751 756.845 123.236 761.343 123.236C765.841 123.236 769.676 124.751 772.849 127.781C776.068 130.764 777.678 134.339 777.678 138.506C777.678 142.72 776.068 146.342 772.849 149.372C769.676 152.355 765.841 153.847 761.343 153.847ZM891.403 199.017L863.705 200.722C863.231 198.354 862.213 196.223 860.651 194.33C859.088 192.388 857.028 190.849 854.472 189.713C851.962 188.529 848.955 187.938 845.452 187.938C840.764 187.938 836.811 188.932 833.591 190.92C830.371 192.862 828.761 195.466 828.761 198.733C828.761 201.337 829.803 203.539 831.886 205.338C833.97 207.137 837.545 208.581 842.611 209.67L862.355 213.648C872.961 215.826 880.868 219.33 886.077 224.159C891.285 228.989 893.889 235.333 893.889 243.193C893.889 250.343 891.782 256.616 887.568 262.014C883.402 267.412 877.672 271.626 870.381 274.656C863.136 277.639 854.779 279.131 845.31 279.131C830.868 279.131 819.363 276.124 810.793 270.111C802.27 264.05 797.275 255.812 795.807 245.395L825.565 243.832C826.465 248.236 828.643 251.598 832.099 253.918C835.556 256.19 839.983 257.327 845.381 257.327C850.684 257.327 854.945 256.309 858.165 254.273C861.432 252.189 863.089 249.514 863.136 246.247C863.089 243.501 861.929 241.252 859.656 239.5C857.384 237.701 853.88 236.328 849.145 235.381L830.253 231.616C819.599 229.486 811.669 225.793 806.46 220.537C801.299 215.281 798.719 208.581 798.719 200.438C798.719 193.43 800.613 187.393 804.401 182.327C808.236 177.26 813.61 173.354 820.523 170.608C827.483 167.862 835.627 166.489 844.955 166.489C858.733 166.489 869.576 169.401 877.483 175.224C885.438 181.048 890.078 188.979 891.403 199.017ZM970.967 167.909V190.636H905.271V167.909H970.967ZM920.185 141.773H950.441V243.477C950.441 246.271 950.867 248.449 951.719 250.011C952.572 251.527 953.755 252.592 955.271 253.207C956.833 253.823 958.632 254.131 960.668 254.131C962.089 254.131 963.509 254.012 964.93 253.776C966.35 253.491 967.439 253.278 968.197 253.136L972.955 275.651C971.44 276.124 969.309 276.669 966.563 277.284C963.817 277.947 960.479 278.349 956.549 278.491C949.257 278.776 942.865 277.805 937.373 275.58C931.928 273.354 927.69 269.898 924.66 265.21C921.629 260.523 920.138 254.604 920.185 247.455V141.773Z" fill="white"/>
</g>
<defs>
<filter id="filter0_d_1_6" x="115.102" y="123.236" width="861.853" height="163.895" filterUnits="userSpaceOnUse" color-interpolation-filters="sRGB">
<feFlood flood-opacity="0" result="BackgroundImageFix"/>
<feColorMatrix in="SourceAlpha" type="matrix" values="0 0 0 0 0 0 0 0 0 0 0 0 0 0 0 0 0 0 127 0" result="hardAlpha"/>
<feOffset dy="4"/>
<feGaussianBlur stdDeviation="2"/>
<feComposite in2="hardAlpha" operator="out"/>
<feColorMatrix type="matrix" values="0 0 0 0 0 0 0 0 0 0 0 0 0 0 0 0 0 0 0.25 0"/>
<feBlend mode="normal" in2="BackgroundImageFix" result="effect1_dropShadow_1_6"/>
<feBlend mode="normal" in="SourceGraphic" in2="effect1_dropShadow_1_6" result="shape"/>
</filter>
<linearGradient id="paint0_linear_1_6" x1="76.079" y1="739.798" x2="523.48" y2="1094.95" gradientUnits="userSpaceOnUse">
<stop stop-color="#9013FE"/>
<stop offset="1" stop-color="#6610F2"/>
</linearGradient>
</defs>
</svg>
